PathFileType	4	(X/Y/Z)	C:/Users/opensim2020/Desktop/walking_exp_matlab/subject03_walking07_straight_04.trc																																																																																																																																								
DataRate	CameraRate	NumFrames	NumMarkers	Units	OrigDataRate	OrigDataStartFrame	OrigNumFrames																																																																																																																																				
100	100	9	46	mm	100	3058	265																																																																																																																																				
Frame#	Time	LFHD			RFHD			LBHD			RBHD			C7			T10			CLAV			STRN			RBAK			LSHO			LUPA			LELB			LFRM			LWRA			LWRB			LFIN			RSHO			RUPA			RELB			RFRM			RWRA			RWRB			RFIN			LASI			RASI			LPSI			RPSI			LTHI			LKNE			LTIB			LANK			LHEE			LTOE			RTHI			RKNE			RTIB			RANK			RHEE			RTOE			*39			*40			*41			*42			*43			*44			*45		
		X1	Y1	Z1	X2	Y2	Z2	X3	Y3	Z3	X4	Y4	Z4	X5	Y5	Z5	X6	Y6	Z6	X7	Y7	Z7	X8	Y8	Z8	X9	Y9	Z9	X10	Y10	Z10	X11	Y11	Z11	X12	Y12	Z12	X13	Y13	Z13	X14	Y14	Z14	X15	Y15	Z15	X16	Y16	Z16	X17	Y17	Z17	X18	Y18	Z18	X19	Y19	Z19	X20	Y20	Z20	X21	Y21	Z21	X22	Y22	Z22	X23	Y23	Z23	X24	Y24	Z24	X25	Y25	Z25	X26	Y26	Z26	X27	Y27	Z27	X28	Y28	Z28	X29	Y29	Z29	X30	Y30	Z30	X31	Y31	Z31	X32	Y32	Z32	X33	Y33	Z33	X34	Y34	Z34	X35	Y35	Z35	X36	Y36	Z36	X37	Y37	Z37	X38	Y38	Z38	X39	Y39	Z39	X40	Y40	Z40	X41	Y41	Z41	X42	Y42	Z42	X43	Y43	Z43	X44	Y44	Z44	X45	Y45	Z45	X46	Y46	Z46
																																																																																																																																											
100	0.99	-94.75262	1606.29004	958.69086	-102.12483	1610.17456	1091.45142	-228.39001	1584.41504	955.16626	-230.86862	1587.25305	1086.27979	-282.33365	1421.60608	1017.61517	-326.64758	1106.06995	1023.22345	-166.3037	1338.41992	1014.91638	-128.58322	1173.56348	1007.06421	-337.62247	1245.6543	1120.05225	-211.18964	1377.65942	860.67572	-223.28917	1179.02344	792.8089	-215.06662	1055.50708	784.30579	-187.91788	928.11072	785.64417	-167.39474	810.64868	816.38049	-191.61905	815.12842	765.99158	-174.9549	732.63483	774.94269	-202.57709	1364.1687	1174.9364	-174.09468	1145.57947	1250.96887	-140.3046	1038.16296	1264.49841	-102.10091	906.72388	1266.98621	-61.83724	815.72943	1230.55359	-86.44927	808.43585	1277.88794	-52.95551	742.09296	1268.7583	-164.68175	942.86029	898.03802	-150.32472	943.76746	1134.88647	-323.63901	956.82996	955.04706	-313.17334	972.44519	1103.94543	-145.61044	645.49536	845.90326	-82.8206	477.00665	867.58295	-190.14024	309.32745	877.66455	-286.10443	126.53525	925.56152	-335.17374	107.80194	968.70801	-165.18701	43.73453	937.18738	-212.20955	647.79431	1171.81311	-210.5621	468.0791	1132.94446	-267.00259	284.67505	1133.49805	-305.04468	72.25557	1079.94287	-349.49768	41.73074	1029.58167	-163.44252	31.32555	1061.79675	NaN	NaN	NaN	NaN	NaN	NaN	NaN	NaN	NaN	NaN	NaN	NaN	NaN	NaN	NaN	NaN	NaN	NaN	NaN	NaN	NaN
101	1	-85.60457	1605.90088	958.41193	-92.90607	1610.05713	1091.10022	-219.24988	1584.08972	954.99677	-221.65187	1587.18091	1086.12817	-273.11163	1421.39502	1017.68976	-317.46954	1105.79749	1023.62805	-157.06667	1338.24438	1015.01031	-119.49757	1173.31982	1007.28192	-328.24939	1245.53918	1120.57715	-202.35013	1377.19312	860.68402	-216.06184	1178.396	792.94531	-209.10941	1054.77148	784.51581	-184.08499	926.88037	785.80603	-165.67017	808.99756	816.33179	-189.67662	814.06628	765.8678	-175.13522	731.05292	774.8382	-193.04547	1364.0531	1174.99878	-162.63249	1146.04688	1251.42932	-127.57811	1038.99451	1265.02429	-87.12037	908.29889	1267.46509	-44.99231	818.25922	1231.01233	-69.78735	810.25305	1278.00305	-35.09674	744.54419	1268.73523	-155.40312	942.8324	898.63116	-141.76331	943.04944	1135.39673	-314.58264	956.61096	955.00665	-304.52399	972.19861	1103.9884	-134.11145	646.13409	846.50745	-70.09734	478.31445	869.49402	-169.96623	305.54871	879.21411	-255.72816	117.48415	926.6189	-304.10217	96.2944	969.71973	-130.07649	42.0361	937.89526	-206.26488	647.44794	1172.01929	-206.30133	467.81894	1133.25146	-264.71783	284.94501	1133.5116	-304.78699	72.8923	1079.69324	-349.24054	42.75148	1029.24744	-163.33713	31.33785	1061.948	-158.87097	1682.61267	1005.21985	NaN	NaN	NaN	NaN	NaN	NaN	NaN	NaN	NaN	NaN	NaN	NaN	NaN	NaN	NaN	NaN	NaN	NaN
102	1.01	-76.58967	1605.6427	957.98615	-83.6755	1609.92773	1090.7749	-210.12265	1583.60962	954.78015	-212.44756	1586.98999	1085.89355	-263.85898	1421.0199	1017.84698	-308.27878	1105.44202	1023.92999	-147.82858	1337.88635	1015.04578	-110.2127	1172.98267	1007.40265	-318.83417	1245.2821	1120.99158	-193.48491	1376.67688	860.6286	-208.76515	1177.71228	793.07324	-203.20674	1053.98425	784.61218	-180.21329	925.68207	785.88177	-163.68401	807.53241	816.24542	-187.53308	813.00702	765.72369	-175.0054	729.58142	774.84747	-183.52245	1363.86987	1175.04016	-151.17349	1146.38696	1251.802	-115.00965	1039.90503	1265.78015	-72.26457	909.83441	1267.82068	-28.33591	820.83081	1231.21606	-53.32989	812.0163	1277.99097	-17.38481	747.08636	1268.50452	-145.97984	942.69214	899.12909	-133.29903	942.48944	1135.99146	-305.42596	956.35419	954.97821	-295.8909	971.95978	1103.9209	-122.6739	646.69324	846.95172	-58.18229	479.22049	871.31604	-150.10448	301.63776	880.59357	-224.88145	108.67672	927.65192	-271.272	84.38435	970.9278	-94.88418	40.74568	938.42712	-200.2404	647.06665	1172.23315	-201.97928	467.54932	1133.41199	-262.43152	285.24347	1133.48523	-304.35669	73.4753	1079.49255	-349.07642	43.92645	1028.87244	-163.22052	31.26728	1062.01233	NaN	NaN	NaN	NaN	NaN	NaN	NaN	NaN	NaN	NaN	NaN	NaN	NaN	NaN	NaN	NaN	NaN	NaN	NaN	NaN	NaN
103	1.02	-67.5416	1605.21167	957.57587	-74.47055	1609.77576	1090.31433	-201.03099	1583.03015	954.52814	-203.19067	1586.69385	1085.65369	-254.56329	1420.68579	1017.94379	-299.09518	1105.02832	1023.98682	-138.55156	1337.48535	1015.05792	-100.99269	1172.56409	1007.53394	-309.47391	1244.95923	1121.2876	-184.54755	1376.06177	860.53613	-201.40767	1176.96741	793.08368	-197.27623	1053.11169	784.69122	-176.24335	924.53058	785.87231	-161.58319	806.04199	816.20465	-185.13387	812.00397	765.49194	-174.55128	728.13556	775.0166	-173.96924	1363.61279	1175.07654	-139.7859	1146.69409	1252.13232	-102.42712	1040.61267	1266.12207	-57.6206	911.35132	1268.03796	-11.95247	823.31268	1231.24292	-37.02211	813.79681	1277.77051	0.20241	749.59546	1268.04028	-136.39153	942.37109	899.64075	-125.00246	941.87219	1136.52209	-296.26923	956.03693	954.77643	-287.29065	971.60779	1103.77209	-112.064	646.69501	847.5954	-47.00293	479.77701	873.01416	-130.26088	297.65933	881.98584	-193.28288	100.42728	928.71179	-238.47026	73.5159	972.26636	-59.44115	40.0979	938.79132	-194.20963	646.76147	1172.27368	-197.64751	467.29892	1133.62012	-260.0155	285.47092	1133.57776	-303.97659	74.10255	1079.4873	-349.20044	45.23399	1028.2085	-163.26973	31.26878	1062.16675	NaN	NaN	NaN	NaN	NaN	NaN	NaN	NaN	NaN	NaN	NaN	NaN	NaN	NaN	NaN	NaN	NaN	NaN	NaN	NaN	NaN
104	1.03	-58.44895	1604.67334	957.13275	-65.26035	1609.52527	1089.86206	-191.92178	1582.35718	954.29822	-193.97983	1586.24011	1085.33948	-245.22116	1420.10913	1018.01428	-289.89328	1104.55237	1023.94476	-129.16017	1337.04846	1014.97772	-91.66672	1172.08594	1007.66028	-300.0871	1244.58325	1121.48035	-175.50906	1375.37292	860.35303	-193.92847	1176.07971	793.12415	-191.34669	1052.35632	784.68976	-172.11467	923.40558	785.84875	-159.33453	804.67767	816.1261	-182.69264	810.88159	765.47992	-173.74449	726.79059	775.2077	-164.40958	1363.23535	1175.05762	-128.4433	1146.8905	1252.37488	-89.95975	1041.27197	1266.4425	-43.09227	912.75671	1268.03979	4.17922	825.7926	1231.02051	-20.87275	815.48688	1277.32031	17.55931	752.11719	1267.35889	-126.73051	941.82074	900.06226	-116.58495	941.21027	1137.07666	-286.98425	955.69	954.52344	-278.64719	971.19263	1103.50977	-101.03972	647.06445	847.45392	-36.68931	479.81165	874.68903	-110.70327	293.76111	883.15326	-161.23601	92.70818	929.58118	-204.13388	63.01615	973.85541	-24.18907	39.79353	939.64026	-188.0032	646.38654	1172.45752	-193.26073	467.03226	1133.77869	-257.70871	285.7764	1133.33179	-303.64816	74.82808	1079.19324	-349.03604	46.46221	1027.86536	-162.84511	31.33259	1062.15918	NaN	NaN	NaN	NaN	NaN	NaN	NaN	NaN	NaN	NaN	NaN	NaN	NaN	NaN	NaN	NaN	NaN	NaN	NaN	NaN	NaN
105	1.04	-49.33164	1604.13635	956.63379	-56.04695	1609.2085	1089.39734	-182.75307	1581.56348	953.9491	-184.69604	1585.69922	1085.05139	-235.92439	1419.51489	1018.13879	-280.6875	1103.97083	1023.63208	-119.81964	1336.42383	1014.94177	-82.42165	1171.46362	1007.88806	-290.68283	1244.14258	1121.61755	-166.40733	1374.57544	860.20599	-186.52632	1175.20361	793.0553	-185.4998	1051.53223	784.55267	-167.92963	922.33472	785.68134	-157.59683	802.86841	816.63452	-179.98029	809.89844	765.2887	-172.52356	725.52887	775.46027	-154.78815	1362.79578	1175.00806	-117.23448	1147.00488	1252.55725	-77.68774	1041.97876	1266.79712	-28.72923	914.12067	1267.89941	20.01001	828.25378	1230.57458	-4.93348	817.17194	1276.7229	34.72972	754.69769	1266.52148	-116.53833	941.3092	900.17322	-108.23274	940.53833	1137.58875	-277.58289	955.24927	954.09729	-270.01175	970.77228	1103.10059	-90.97458	646.63971	847.78229	-26.80782	479.41229	876.32355	-91.29465	290.00705	884.2923	-129.27864	85.87703	930.0296	-169.64996	53.29564	974.63049	11.06463	40.32141	940.40063	-181.82907	646.17798	1172.51868	-188.9285	466.79138	1133.94104	-255.50354	286.17102	1133.03259	-303.41586	75.62616	1078.75781	-348.75256	47.57044	1027.4502	-162.65858	31.32988	1062.32886	NaN	NaN	NaN	NaN	NaN	NaN	NaN	NaN	NaN	NaN	NaN	NaN	NaN	NaN	NaN	NaN	NaN	NaN	NaN	NaN	NaN
106	1.05	-40.18581	1603.5343	956.20038	-46.8169	1608.81873	1088.92346	-173.60222	1580.6792	953.6842	-175.43205	1584.98718	1084.69666	-226.52921	1418.83716	1018.12158	-271.40375	1103.37561	1023.17676	-110.37644	1335.77112	1014.78229	-73.10602	1170.75439	1008.12256	-281.31622	1243.68225	1121.63147	-157.24355	1373.79199	859.97736	-179.09238	1174.36218	792.92383	-179.72569	1050.64893	784.36475	-163.6981	921.28711	785.45782	-154.02354	802.25452	815.93036	-177.09155	808.94183	765.14032	-170.78279	724.37189	775.50403	-145.12117	1362.18176	1174.92786	-106.11869	1147.0343	1252.67224	-65.47149	1042.51941	1266.86377	-14.61292	915.42273	1267.56873	35.53539	830.64124	1229.85608	10.7359	818.80365	1275.96399	51.66344	757.24481	1265.45508	-107.07535	940.22601	900.83575	-99.72574	939.8324	1138.02441	-268.00894	954.68054	953.63959	-261.24649	970.23846	1102.61023	-81.50472	645.76215	848.12549	-17.63533	478.55698	878.12506	-72.04343	286.50217	885.2959	-97.165	80.10031	930.59424	-136.30386	45.72328	974.45184	45.56273	41.3192	941.26849	-175.55711	645.79578	1172.59253	-184.49245	466.50549	1134.13098	-253.00449	286.50726	1132.88062	-302.93991	76.30627	1078.56287	-348.5126	48.69791	1027.09814	-162.55969	31.287	1062.34998	NaN	NaN	NaN	NaN	NaN	NaN	NaN	NaN	NaN	NaN	NaN	NaN	NaN	NaN	NaN	NaN	NaN	NaN	NaN	NaN	NaN
107	1.06	-31.0097	1602.87964	955.66876	-37.56015	1608.29565	1088.37793	-164.3775	1579.70178	953.2627	-166.11121	1584.19946	1084.31848	-217.04263	1418.07727	1017.74371	-262.16327	1102.70459	1022.56628	-100.89934	1335.02393	1014.64099	-63.75285	1169.95483	1008.35101	-271.87515	1243.12085	1121.64185	-147.91835	1372.87903	859.70752	-171.67584	1173.48462	792.62476	-173.81944	1049.79492	784.06262	-159.27675	920.24158	785.1933	-150.82397	801.20776	815.69678	-174.05255	808.01892	764.94312	-169.05244	723.20978	775.76648	-135.58487	1361.76111	1174.79346	-95.17039	1146.98962	1252.75244	-53.44009	1042.9198	1266.85559	-0.6719	916.64569	1267.12024	50.64531	832.88989	1228.94934	26.18081	820.388	1274.922	68.34095	759.81921	1264.19189	-97.12054	939.15271	901.1178	-91.20672	939.04309	1138.36279	-258.31735	953.98846	952.97803	-252.40222	969.66656	1102.05103	-72.66941	644.36072	848.47375	-8.70321	477.36902	879.95178	-53.09378	283.40707	886.40009	-65.55254	75.394	930.89276	-103.37161	39.80103	973.95734	79.35255	42.60419	942.13794	-169.30106	645.37177	1172.62891	-179.88713	466.21921	1134.32739	-250.30481	286.7962	1132.77893	-302.55475	77.09525	1078.35754	-348.22537	49.85453	1026.86035	-162.38252	31.10612	1062.35815	-104.66058	1679.17554	1002.07001	NaN	NaN	NaN	NaN	NaN	NaN	NaN	NaN	NaN	NaN	NaN	NaN	NaN	NaN	NaN	NaN	NaN	NaN
108	1.07	-21.80791	1602.11182	955.08014	-28.2172	1607.61523	1087.87268	-155.16751	1578.70581	952.87976	-156.76981	1583.35193	1083.91602	-207.54019	1417.17834	1017.677	-252.82088	1101.91931	1021.91034	-91.29339	1334.26367	1014.43195	-54.37356	1169.07654	1008.57489	-262.46567	1242.50696	1121.50452	-138.51828	1371.89563	859.39001	-164.11005	1172.61072	792.29791	-167.82097	1048.91016	783.7561	-154.64009	919.23584	784.86945	-147.17188	800.20013	815.37152	-170.73854	807.1463	764.80127	-166.73013	722.24677	775.84265	-125.98124	1361.14294	1174.6394	-84.40179	1146.82739	1252.80359	-41.60445	1043.22925	1266.76221	12.99572	917.74792	1266.47034	65.47986	835.07635	1227.8103	41.32702	821.94055	1273.82861	84.61155	762.34167	1262.80554	-87.1384	937.97156	901.42194	-82.5601	938.15509	1138.6886	-248.55193	953.14777	952.32483	-243.4745	968.94275	1101.40234	-64.50178	642.42719	848.98816	-0.25982	475.81265	882.03058	-34.56465	280.9646	887.69275	-35.0313	72.06823	930.40002	-71.41851	35.54743	973.77283	112.10945	44.30297	942.94891	-162.86618	644.87329	1172.69763	-175.0347	465.80359	1134.44531	-247.49921	287.06186	1132.70422	-302.08054	77.91529	1078.255	-347.99576	51.13149	1026.69177	-162.27472	31.06337	1062.40625	NaN	NaN	NaN	NaN	NaN	NaN	NaN	NaN	NaN	NaN	NaN	NaN	NaN	NaN	NaN	NaN	NaN	NaN	NaN	NaN	NaN
